<mxfile host="app.diagrams.net" agent="Mozilla/5.0 (Windows NT 10.0; Win64; x64) AppleWebKit/537.36 (KHTML, like Gecko) Chrome/131.0.0.0 Safari/537.36 Edg/131.0.0.0" version="25.0.3">
  <diagram id="C5RBs43oDa-KdzZeNtuy" name="Page-1">
    <mxGraphModel dx="1290" dy="1940" grid="1" gridSize="10" guides="1" tooltips="1" connect="1" arrows="1" fold="1" page="1" pageScale="1" pageWidth="827" pageHeight="1169" math="0" shadow="0">
      <root>
        <mxCell id="WIyWlLk6GJQsqaUBKTNV-0" />
        <mxCell id="WIyWlLk6GJQsqaUBKTNV-1" parent="WIyWlLk6GJQsqaUBKTNV-0" />
        <mxCell id="fGu28cwDlgRmdk9_Jq6V-0" value="Contatto" style="swimlane;fontStyle=1;align=center;verticalAlign=top;childLayout=stackLayout;horizontal=1;startSize=26;horizontalStack=0;resizeParent=1;resizeParentMax=0;resizeLast=0;collapsible=1;marginBottom=0;whiteSpace=wrap;html=1;" parent="WIyWlLk6GJQsqaUBKTNV-1" vertex="1">
          <mxGeometry x="80" y="-840" width="160" height="302" as="geometry" />
        </mxCell>
        <mxCell id="fGu28cwDlgRmdk9_Jq6V-1" value="&lt;div&gt;- nome: String  [1]&lt;/div&gt;&lt;div&gt;- cognome: String  [1]&lt;/div&gt;&lt;div&gt;- email: String  [0..3]&lt;/div&gt;&lt;div&gt;- numeroTelefono: String [1..3]&lt;/div&gt;&lt;div&gt;- tag: String [1]&lt;/div&gt;&lt;div&gt;- foto: [1]&lt;br&gt;&lt;/div&gt;&lt;div&gt;&lt;br&gt;&lt;/div&gt;&lt;div&gt;&lt;br&gt;&lt;/div&gt;&lt;div&gt;&lt;br&gt;&lt;/div&gt;" style="text;strokeColor=none;fillColor=none;align=left;verticalAlign=top;spacingLeft=4;spacingRight=4;overflow=hidden;rotatable=0;points=[[0,0.5],[1,0.5]];portConstraint=eastwest;whiteSpace=wrap;html=1;" parent="fGu28cwDlgRmdk9_Jq6V-0" vertex="1">
          <mxGeometry y="26" width="160" height="104" as="geometry" />
        </mxCell>
        <mxCell id="fGu28cwDlgRmdk9_Jq6V-2" value="" style="line;strokeWidth=1;fillColor=none;align=left;verticalAlign=middle;spacingTop=-1;spacingLeft=3;spacingRight=3;rotatable=0;labelPosition=right;points=[];portConstraint=eastwest;strokeColor=inherit;" parent="fGu28cwDlgRmdk9_Jq6V-0" vertex="1">
          <mxGeometry y="130" width="160" height="20" as="geometry" />
        </mxCell>
        <mxCell id="fGu28cwDlgRmdk9_Jq6V-3" value="&lt;div&gt;+ setNome&lt;/div&gt;&lt;div&gt;+ getNome&lt;/div&gt;&lt;div&gt;+ setCognome&lt;/div&gt;&lt;div&gt;+ getCognome&lt;/div&gt;&lt;div&gt;+ setEmail&lt;/div&gt;&lt;div&gt;+ getEmail&lt;/div&gt;&lt;div&gt;+ setTag&lt;/div&gt;&lt;div&gt;+ getTag&lt;/div&gt;&lt;div&gt;+ setFoto&lt;/div&gt;&lt;div&gt;+ getFoto&lt;/div&gt;&lt;div&gt;&lt;br&gt;&lt;/div&gt;&lt;div&gt;&lt;br&gt;&lt;/div&gt;" style="text;strokeColor=none;fillColor=none;align=left;verticalAlign=top;spacingLeft=4;spacingRight=4;overflow=hidden;rotatable=0;points=[[0,0.5],[1,0.5]];portConstraint=eastwest;whiteSpace=wrap;html=1;" parent="fGu28cwDlgRmdk9_Jq6V-0" vertex="1">
          <mxGeometry y="150" width="160" height="152" as="geometry" />
        </mxCell>
        <mxCell id="fGu28cwDlgRmdk9_Jq6V-4" value="Lista Contatti" style="swimlane;fontStyle=1;align=center;verticalAlign=top;childLayout=stackLayout;horizontal=1;startSize=26;horizontalStack=0;resizeParent=1;resizeParentMax=0;resizeLast=0;collapsible=1;marginBottom=0;whiteSpace=wrap;html=1;" parent="WIyWlLk6GJQsqaUBKTNV-1" vertex="1">
          <mxGeometry x="320" y="-840" width="160" height="86" as="geometry" />
        </mxCell>
        <mxCell id="fGu28cwDlgRmdk9_Jq6V-5" value="&lt;div&gt;- listaContatti: Contatto [0..*]&lt;/div&gt;" style="text;strokeColor=none;fillColor=none;align=left;verticalAlign=top;spacingLeft=4;spacingRight=4;overflow=hidden;rotatable=0;points=[[0,0.5],[1,0.5]];portConstraint=eastwest;whiteSpace=wrap;html=1;" parent="fGu28cwDlgRmdk9_Jq6V-4" vertex="1">
          <mxGeometry y="26" width="160" height="26" as="geometry" />
        </mxCell>
        <mxCell id="fGu28cwDlgRmdk9_Jq6V-6" value="" style="line;strokeWidth=1;fillColor=none;align=left;verticalAlign=middle;spacingTop=-1;spacingLeft=3;spacingRight=3;rotatable=0;labelPosition=right;points=[];portConstraint=eastwest;strokeColor=inherit;" parent="fGu28cwDlgRmdk9_Jq6V-4" vertex="1">
          <mxGeometry y="52" width="160" height="8" as="geometry" />
        </mxCell>
        <mxCell id="fGu28cwDlgRmdk9_Jq6V-7" value="- AggiungiContatto" style="text;strokeColor=none;fillColor=none;align=left;verticalAlign=top;spacingLeft=4;spacingRight=4;overflow=hidden;rotatable=0;points=[[0,0.5],[1,0.5]];portConstraint=eastwest;whiteSpace=wrap;html=1;" parent="fGu28cwDlgRmdk9_Jq6V-4" vertex="1">
          <mxGeometry y="60" width="160" height="26" as="geometry" />
        </mxCell>
        <mxCell id="fGu28cwDlgRmdk9_Jq6V-12" value="" style="rhombus;whiteSpace=wrap;html=1;" parent="WIyWlLk6GJQsqaUBKTNV-1" vertex="1">
          <mxGeometry x="300" y="-807" width="20" height="20" as="geometry" />
        </mxCell>
        <mxCell id="fGu28cwDlgRmdk9_Jq6V-13" value="" style="endArrow=none;html=1;rounded=0;entryX=0;entryY=0.5;entryDx=0;entryDy=0;exitX=1.001;exitY=0.181;exitDx=0;exitDy=0;exitPerimeter=0;" parent="WIyWlLk6GJQsqaUBKTNV-1" source="fGu28cwDlgRmdk9_Jq6V-1" target="fGu28cwDlgRmdk9_Jq6V-12" edge="1">
          <mxGeometry width="50" height="50" relative="1" as="geometry">
            <mxPoint x="280" y="-740" as="sourcePoint" />
            <mxPoint x="420" y="-710" as="targetPoint" />
          </mxGeometry>
        </mxCell>
        <mxCell id="fGu28cwDlgRmdk9_Jq6V-14" value="Lista Contatti Preferiti" style="swimlane;fontStyle=1;align=center;verticalAlign=top;childLayout=stackLayout;horizontal=1;startSize=26;horizontalStack=0;resizeParent=1;resizeParentMax=0;resizeLast=0;collapsible=1;marginBottom=0;whiteSpace=wrap;html=1;" parent="WIyWlLk6GJQsqaUBKTNV-1" vertex="1">
          <mxGeometry x="560" y="-840" width="210" height="86" as="geometry" />
        </mxCell>
        <mxCell id="fGu28cwDlgRmdk9_Jq6V-15" value="- listaContattiPreferiti: Contatto [0..*]" style="text;strokeColor=none;fillColor=none;align=left;verticalAlign=top;spacingLeft=4;spacingRight=4;overflow=hidden;rotatable=0;points=[[0,0.5],[1,0.5]];portConstraint=eastwest;whiteSpace=wrap;html=1;" parent="fGu28cwDlgRmdk9_Jq6V-14" vertex="1">
          <mxGeometry y="26" width="210" height="26" as="geometry" />
        </mxCell>
        <mxCell id="fGu28cwDlgRmdk9_Jq6V-16" value="" style="line;strokeWidth=1;fillColor=none;align=left;verticalAlign=middle;spacingTop=-1;spacingLeft=3;spacingRight=3;rotatable=0;labelPosition=right;points=[];portConstraint=eastwest;strokeColor=inherit;" parent="fGu28cwDlgRmdk9_Jq6V-14" vertex="1">
          <mxGeometry y="52" width="210" height="8" as="geometry" />
        </mxCell>
        <mxCell id="fGu28cwDlgRmdk9_Jq6V-17" value="+ RimuoviContattoDaListaPreferiti" style="text;strokeColor=none;fillColor=none;align=left;verticalAlign=top;spacingLeft=4;spacingRight=4;overflow=hidden;rotatable=0;points=[[0,0.5],[1,0.5]];portConstraint=eastwest;whiteSpace=wrap;html=1;" parent="fGu28cwDlgRmdk9_Jq6V-14" vertex="1">
          <mxGeometry y="60" width="210" height="26" as="geometry" />
        </mxCell>
        <mxCell id="fGu28cwDlgRmdk9_Jq6V-19" value="" style="triangle;whiteSpace=wrap;html=1;rotation=-180;" parent="WIyWlLk6GJQsqaUBKTNV-1" vertex="1">
          <mxGeometry x="480" y="-807" width="20" height="20" as="geometry" />
        </mxCell>
        <mxCell id="fGu28cwDlgRmdk9_Jq6V-21" value="" style="endArrow=none;html=1;rounded=0;exitX=0;exitY=0.5;exitDx=0;exitDy=0;entryX=-0.002;entryY=0.658;entryDx=0;entryDy=0;entryPerimeter=0;" parent="WIyWlLk6GJQsqaUBKTNV-1" source="fGu28cwDlgRmdk9_Jq6V-19" target="fGu28cwDlgRmdk9_Jq6V-15" edge="1">
          <mxGeometry width="50" height="50" relative="1" as="geometry">
            <mxPoint x="330" y="-710" as="sourcePoint" />
            <mxPoint x="490" y="-700" as="targetPoint" />
          </mxGeometry>
        </mxCell>
        <mxCell id="fGu28cwDlgRmdk9_Jq6V-23" value="&lt;div&gt;«interface»&lt;/div&gt;&lt;div&gt;&lt;b&gt;OperazioniRubrica&lt;/b&gt;&lt;br&gt;&lt;/div&gt;" style="swimlane;fontStyle=0;childLayout=stackLayout;horizontal=1;startSize=40;fillColor=none;horizontalStack=0;resizeParent=1;resizeParentMax=0;resizeLast=0;collapsible=1;marginBottom=0;whiteSpace=wrap;html=1;" parent="WIyWlLk6GJQsqaUBKTNV-1" vertex="1">
          <mxGeometry x="450" y="-1040" width="140" height="118" as="geometry" />
        </mxCell>
        <mxCell id="fGu28cwDlgRmdk9_Jq6V-24" value="+ RicercaContatto" style="text;strokeColor=none;fillColor=none;align=left;verticalAlign=top;spacingLeft=4;spacingRight=4;overflow=hidden;rotatable=0;points=[[0,0.5],[1,0.5]];portConstraint=eastwest;whiteSpace=wrap;html=1;" parent="fGu28cwDlgRmdk9_Jq6V-23" vertex="1">
          <mxGeometry y="40" width="140" height="26" as="geometry" />
        </mxCell>
        <mxCell id="fGu28cwDlgRmdk9_Jq6V-25" value="+ ImportListaContatti" style="text;strokeColor=none;fillColor=none;align=left;verticalAlign=top;spacingLeft=4;spacingRight=4;overflow=hidden;rotatable=0;points=[[0,0.5],[1,0.5]];portConstraint=eastwest;whiteSpace=wrap;html=1;" parent="fGu28cwDlgRmdk9_Jq6V-23" vertex="1">
          <mxGeometry y="66" width="140" height="26" as="geometry" />
        </mxCell>
        <mxCell id="fGu28cwDlgRmdk9_Jq6V-26" value="+ ExportListaContatti" style="text;strokeColor=none;fillColor=none;align=left;verticalAlign=top;spacingLeft=4;spacingRight=4;overflow=hidden;rotatable=0;points=[[0,0.5],[1,0.5]];portConstraint=eastwest;whiteSpace=wrap;html=1;" parent="fGu28cwDlgRmdk9_Jq6V-23" vertex="1">
          <mxGeometry y="92" width="140" height="26" as="geometry" />
        </mxCell>
        <mxCell id="fGu28cwDlgRmdk9_Jq6V-28" value="" style="endArrow=block;dashed=1;endFill=0;endSize=12;html=1;rounded=0;entryX=0.094;entryY=1.15;entryDx=0;entryDy=0;entryPerimeter=0;exitX=0.75;exitY=0;exitDx=0;exitDy=0;" parent="WIyWlLk6GJQsqaUBKTNV-1" source="fGu28cwDlgRmdk9_Jq6V-4" target="fGu28cwDlgRmdk9_Jq6V-26" edge="1">
          <mxGeometry width="160" relative="1" as="geometry">
            <mxPoint x="350" y="-780" as="sourcePoint" />
            <mxPoint x="510" y="-780" as="targetPoint" />
          </mxGeometry>
        </mxCell>
        <mxCell id="fGu28cwDlgRmdk9_Jq6V-30" value="" style="endArrow=block;dashed=1;endFill=0;endSize=12;html=1;rounded=0;entryX=0.888;entryY=1.107;entryDx=0;entryDy=0;entryPerimeter=0;exitX=0.163;exitY=0.009;exitDx=0;exitDy=0;exitPerimeter=0;" parent="WIyWlLk6GJQsqaUBKTNV-1" source="fGu28cwDlgRmdk9_Jq6V-14" target="fGu28cwDlgRmdk9_Jq6V-26" edge="1">
          <mxGeometry width="160" relative="1" as="geometry">
            <mxPoint x="450" y="-830" as="sourcePoint" />
            <mxPoint x="491" y="-907" as="targetPoint" />
          </mxGeometry>
        </mxCell>
        <mxCell id="fGu28cwDlgRmdk9_Jq6V-31" value="1" style="text;html=1;align=center;verticalAlign=middle;resizable=0;points=[];autosize=1;strokeColor=none;fillColor=none;" parent="WIyWlLk6GJQsqaUBKTNV-1" vertex="1">
          <mxGeometry x="290" y="-830" width="30" height="30" as="geometry" />
        </mxCell>
        <mxCell id="fGu28cwDlgRmdk9_Jq6V-32" value="*" style="text;html=1;align=center;verticalAlign=middle;resizable=0;points=[];autosize=1;strokeColor=none;fillColor=none;" parent="WIyWlLk6GJQsqaUBKTNV-1" vertex="1">
          <mxGeometry x="240" y="-830" width="30" height="30" as="geometry" />
        </mxCell>
      </root>
    </mxGraphModel>
  </diagram>
</mxfile>
